<svg xmlns="http://www.w3.org/2000/svg" x="0px" y="0px" viewBox="0 0 150.1 150">
		<path fill="#EDEDED" d="M148.8,36.5L113.6,1.3c-1.7-1.7-4.2-1.7-5.8,0c-1.7,1.7-1.7,4.2,0,5.8l14.6,14.6l-14,14L95.2,22.6
			c-1.7-1.7-4.2-1.7-5.8,0l-63.8,64c-1.7,1.7-1.7,4.2,0,5.8l3.1,3.1l-9.4,9.4c-0.8,0.8-2.4,3.3,0,5.8l7.1,7.1l-25,25
			c-1.7,1.7-1.9,4.4,0,5.8c2.5,2.1,4.4,1,5.8,0l25-25l7.1,7.1c2.5,2.2,5,0.8,5.8,0l9.4-9.4l3.1,3.1c2.7,2.7,5,0.8,5.8,0l63.8-63.8
			c1.2-1.2,2.3-3.8,0-5.8l-13.1-13.1l14-14l14.6,14.6c1.7,1.5,4.4,1.5,5.8,0C150.5,40.9,150.5,38.2,148.8,36.5z M42.2,122.1
			L28,107.9l6.5-6.5l14.2,14.2L42.2,122.1z M118.6,57.8l-58,58L34.3,89.5l19.8-19.8l6.3,6.3c1.5,1.5,4.4,1.5,5.8,0
			c1.7-1.7,1.7-4.2,0-5.8l-6.3-6.3l6.5-6.5l12.5,12.5c1.2,1.2,4.2,1.5,5.8,0s1.7-4.2,0-5.8L72.3,51.5l19.8-19.8L118.6,57.8z"/>
</svg>
