<svg width="17" height="12" viewBox="0 0 17 12" fill="none" xmlns="http://www.w3.org/2000/svg">
<path d="M13.1451 8.7235C13.0856 8.7235 13.0261 8.70309 12.9797 8.66181L10.1965 6.21341C10.0993 6.12813 10.0945 5.98435 10.1859 5.89318C10.2773 5.80111 10.4297 5.79702 10.5279 5.8832L13.311 8.33161C13.4082 8.41688 13.413 8.56067 13.3216 8.65183C13.2737 8.69946 13.2099 8.7235 13.1451 8.7235Z" fill="#333333" stroke="#333333" stroke-width="0.5"/>
<path d="M3.85487 8.72413C3.79054 8.72413 3.72621 8.70009 3.67833 8.65246C3.58691 8.56129 3.59175 8.41751 3.68897 8.33224L6.47305 5.88383C6.57076 5.79856 6.72409 5.80219 6.81502 5.89381C6.90644 5.98498 6.9016 6.12876 6.80438 6.21404L4.02029 8.66244C3.97386 8.70372 3.91437 8.72413 3.85487 8.72413Z" fill="#333333" stroke="#333333" stroke-width="0.5"/>
<path d="M14.7908 11H2.20921C1.54269 11 1 10.4915 1 9.86606V2.13394C1 1.50846 1.54269 1 2.20921 1H14.7908C15.4573 1 16 1.50846 16 2.13394V9.86606C16 10.4915 15.4573 11 14.7908 11ZM2.20921 1.45358C1.8092 1.45358 1.48368 1.75883 1.48368 2.13394V9.86606C1.48368 10.2412 1.8092 10.5464 2.20921 10.5464H14.7908C15.1908 10.5464 15.5163 10.2412 15.5163 9.86606V2.13394C15.5163 1.75883 15.1908 1.45358 14.7908 1.45358H2.20921Z" fill="#333333" stroke="#333333" stroke-width="0.5"/>
<path d="M8.4999 7.13961C8.17825 7.13961 7.8566 7.03937 7.61185 6.83934L1.40135 1.75883C1.30075 1.67674 1.29011 1.53341 1.37765 1.43861C1.46617 1.34426 1.61853 1.33565 1.71913 1.41684L7.92963 6.49689C8.23871 6.74954 8.76109 6.74954 9.06968 6.49689L15.2724 1.425C15.3726 1.3429 15.5249 1.35198 15.6139 1.44677C15.7015 1.54157 15.6913 1.68445 15.5907 1.767L9.38794 6.83889C9.14271 7.03937 8.82155 7.13961 8.4999 7.13961Z" fill="#333333" stroke="#333333" stroke-width="0.5"/>
</svg>
