<svg xmlns="http://www.w3.org/2000/svg" x="0px" y="0px" viewBox="0 0 488.9 291.4">
	<path fill="#989898" d="M244.4,0C151,0,66.3,51.1,3.8,134.1c-5.1,6.8-5.1,16.3,0,23.1C66.3,240.3,151,291.4,244.4,291.4S422.5,240.3,485,157.3
		c5.1-6.8,5.1-16.3,0-23.1C422.5,51.1,337.8,0,244.4,0z M251.1,248.3c-62,3.9-113.2-47.2-109.3-109.3c3.2-51.2,44.7-92.7,95.9-95.9
		c62-3.9,113.2,47.2,109.3,109.3C343.7,203.5,302.2,245,251.1,248.3z M248,200.9c-33.4,2.1-61-25.4-58.8-58.8
		c1.7-27.6,24.1-49.9,51.7-51.7c33.4-2.1,61,25.4,58.8,58.8C297.9,176.9,275.5,199.2,248,200.9z"/>
</svg>
