<svg xmlns="http://www.w3.org/2000/svg" x="0px" y="0px" viewBox="0 0 150 146.6">
	<path fill="#989898" d="M143.7,25.3l-19.2-19c-8.5-8.4-22.3-8.4-30.8-0.1L72.4,27c-8.5,8.3-8.6,21.9-0.1,30.2l12.2-11.7
		c-1.2-3.7,0.3-8,3.3-10.9l13.5-13.2c4.3-4.2,11.2-4.1,15.4,0l11.5,11.4c4.2,4.2,4.2,10.9,0,15.1l-13.5,13.2
		c-2.9,2.8-7.6,4.3-11.2,3.3L91.5,76.2c8.5,8.4,22.3,8.4,30.8,0.1l21.3-20.7C152.1,47.2,152.1,33.6,143.7,25.3z"/>
	<path fill="#989898" d="M65.7,101.3c1,3.6-0.6,8.3-3.5,11.2l-12.6,12.4c-4.3,4.2-11.4,4.2-15.7-0.1l-11.8-11.6
		c-4.3-4.3-4.3-11.2,0.1-15.4l12.7-12.4c3.1-3,7.5-4.5,11.4-3.2l12.2-12.1c-8.6-8.5-22.7-8.6-31.4-0.1L6.5,90
		c-8.7,8.5-8.7,22.3-0.1,30.8L26,140.2c8.6,8.5,22.7,8.6,31.4,0.1l20.5-20c8.7-8.5,8.7-22.3,0.1-30.8L65.7,101.3z"/>
	<path fill="#989898" d="M52.4,95.7c2.9,2.9,7.6,2.9,10.5,0L98,60.9c2.9-2.9,2.9-7.6,0-10.5c-2.9-2.9-7.6-2.9-10.5,0L52.4,85.2
		C49.5,88.1,49.5,92.8,52.4,95.7z"/>
</svg>
