<svg width="28" height="15" viewBox="0 0 28 15" fill="none" xmlns="http://www.w3.org/2000/svg">
<path d="M5.76399 0C3.85167 0 2.2959 1.67646 2.2959 3.73708C2.2959 5.79771 3.85167 7.47417 5.76399 7.47417C7.67631 7.47417 9.23211 5.79771 9.23211 3.73708C9.23211 1.67646 7.67634 0 5.76399 0Z" fill="#7e7763"/>
<path d="M13.6486 0.534668C13.6408 0.534668 13.6328 0.534706 13.625 0.534743C12.8225 0.541494 12.0728 0.885875 11.5143 1.50452C10.9655 2.11223 10.6671 2.91395 10.6739 3.76195C10.6808 4.60995 10.9922 5.40654 11.5508 6.00501C12.1137 6.60812 12.8595 6.93934 13.6531 6.93934C13.6611 6.93934 13.6691 6.9393 13.6771 6.93926C14.4796 6.93251 15.2292 6.58809 15.7878 5.96948C16.3366 5.36177 16.635 4.56005 16.6281 3.71202C16.6139 1.9547 15.2796 0.534668 13.6486 0.534668Z" fill="#7e7763"/>
<path d="M13.7946 7.55127H13.5067C12.1655 7.55127 10.9416 8.06948 10.0176 8.91884C10.2488 9.09912 10.4688 9.29561 10.6774 9.50758C11.2927 10.1329 11.7759 10.8616 12.1136 11.6732C12.4179 12.4041 12.5915 13.1743 12.632 13.9674H18.9997V12.8409C18.9997 9.92433 16.6647 7.55127 13.7946 7.55127Z" fill="#7e7763"/>
<path d="M11.5171 13.9675C11.4121 12.248 10.5545 10.7356 9.27456 9.76635C8.34346 9.06107 7.1886 8.64355 5.93762 8.64355H5.59101C2.50308 8.64359 0 11.1875 0 14.3258V15.0001H11.5283V14.3258C11.5283 14.2055 11.5245 14.0859 11.5171 13.9675Z" fill="#7e7763"/>
<path d="M27.1089 7.12871H24.8515V4.87129C24.8515 4.39604 24.4752 4 23.9802 4C23.4851 4 23.1089 4.37624 23.1089 4.87129V7.12871H20.8713C20.396 7.12871 20 7.50495 20 8C20 8.49505 20.3762 8.87129 20.8713 8.87129H23.1287V11.1287C23.1287 11.604 23.505 12 24 12C24.495 12 24.8713 11.6238 24.8713 11.1287V8.85148H27.1287C27.604 8.85148 28 8.47525 28 7.9802C28 7.48515 27.604 7.12871 27.1089 7.12871Z" fill="#7e7763"/>
</svg>
