<svg xmlns="http://www.w3.org/2000/svg" x="0px" y="0px" viewBox="0 0 284 392.4" >
	<path fill="#fff" d="M214.4,96c-18.8-26.4-38-54-52.8-82.8c-4-8-12.4-13.2-21.2-13.2s-17.2,4.8-21.2,13.2c-14.4,28.4-32.8,55.2-50.4,81.2
		C33.2,146,0,194.4,0,248.4c0,83.6,58.8,144,140,144c82,0,144-62,144-144C284,194.8,250,146.8,214.4,96z M140,376.4
		c-72,0-124-54-124-128c0-48.8,32-95.6,65.6-144.8c18-26.4,36.8-54,51.6-83.2c2-4,5.6-4.4,7.2-4.4c1.6,0,5.2,0.4,7.2,4.4
		c15.2,29.6,34.8,57.6,54,84.8C235.6,154,268,200,268,248.4C268,321.2,212.8,376.4,140,376.4z"/>
	<path fill="#fff" d="M102.4,117.6c-3.6-2.4-8.8-1.6-11.2,2c-13.6,20.8-29.6,44.8-41.2,69.2c-2,4,0,8.8,4,10.8c1.2,0.4,2.4,0.8,3.6,0.8
		c2.8,0,6-1.6,7.2-4.4c11.2-23.6,26.4-46.8,40-66.8C107.2,125.2,106,120.4,102.4,117.6z"/>
	<path fill="#fff" d="M50.4,208.8c-4-1.6-8.8,0.4-10.4,4.4c-1.6,4.4-3.2,8.8-4,13.2s2,8.4,6.4,9.6c0.4,0,1.2,0,1.6,0c3.6,0,7.2-2.8,8-6.4
		c0.8-3.6,1.6-7.2,3.2-10.8C56.8,215.2,54.8,210.8,50.4,208.8z"/>
</svg>
