<svg xmlns="http://www.w3.org/2000/svg" x="0px" y="0px" viewBox="0 0 150 150">
	<path fill="#EDEDED" d="M103.6,9.8c-4.7-3.9-8-3-12.8,5.5c-3.1,5.6-8.1,6.3-11.2,6.1l0-1.1c3.5-1.8,6-5.3,6-9.6C85.7,4.8,80.9,0,75,0
		c-5.9,0-10.8,4.8-10.8,10.8c0,4.2,2.5,7.8,6.1,9.5l0,1.1c-3,0.2-8-0.5-11.2-6.1c-4.7-8.5-8-9.4-12.7-5.5
		C41.6,13.7,22.9,36.1,0,34.1c0,0,4.5,10.3,16.9,8c0,0,6.6,6.9,17.3,2.1c0,0,5.6,5,14.4,0.4c0,0,6.6,5,13.6,0.7c0,0,4,2.9,8.4,2.1
		l0.3,25.9c-0.5-0.1-0.9-0.2-1.4-0.3c0,0-7.6-1.6-15.7-3.9c-7.8-2-16.4-5.3-17.6-7.1c0.1-0.1,0.3-0.2,0.5-0.3c0.7-0.4,1.9-0.7,3.3-1
		c2.9-0.6,6.7-0.9,10.6-1c7.7-0.3,9.1,0.1,9.3,0.1c0-0.2,4.5,0.5,5.7-4c0,0,0.1-0.2,0-0.3c-0.3-3.1-2.7-3.3-4.6-3.7
		c-3.2-0.4-1.5-0.2-5.9-0.2c-7.1,0.5-28.9-1.2-31.7,10.3c0,0.3,0,0.5-0.1,0.8c0.9,10,21.6,14.4,36.7,17.3c-5.1,3.5-7.8,8-8.9,13.9
		c-0.5,6.3,4.4,12.2,16,18.9c-8.8,6.2-14.5,12-14.1,19.1c0.8,5.7,5.9,13.4,15.8,18.3c0,0,0,0,0.1,0l0,0c0,0,0,0,0,0
		c0,0-7-10.6-7.4-16.5c-0.5-3.4,1.5-8.4,9.9-14.5l0.2,21.3h0c0.1,1.8,1.5,3.2,3.2,3.2c1.7,0,3.1-1.4,3.2-3.2h0l0.3-20.7
		c7.8,5.8,9.6,10.6,9.1,13.9c-0.5,5.8-7.4,16.5-7.4,16.5s0,0,0,0c0,0,0,0,0.1,0c10-4.8,15-12.5,15.8-18.3c0.5-7-5.3-12.9-14-19.1
		C93.5,106,98.5,100,98,93.8c-1.1-5.9-3.8-10.4-8.9-13.9c15-3,35.8-7.3,36.7-17.4c0-0.3-0.1-0.5-0.1-0.8C123,50.2,101.1,52,94,51.5
		c-4.3,0-2.6-0.2-5.8,0.2c-2,0.4-4.4,0.5-4.6,3.7c-0.1,0.1,0.1,0.3,0,0.3c1.2,4.6,5.7,3.8,5.7,4c0.1,0,1.5-0.4,9.3-0.1
		c3.9,0.2,7.8,0.4,10.6,1c1.4,0.3,2.6,0.7,3.3,1c0.2,0.1,0.4,0.2,0.5,0.3c-1.3,1.7-9.8,5-17.6,7.1c-8.1,2.2-15.8,3.9-15.8,3.9
		c-0.2,0-0.4,0.1-0.6,0.1l0.3-25.7c4.4,0.8,8.4-2.1,8.4-2.1c7,4.4,13.6-0.7,13.6-0.7c8.9,4.6,14.4-0.4,14.4-0.4
		c10.7,4.8,17.3-2.1,17.3-2.1c12.4,2.3,16.9-8,16.9-8C127.1,36.1,108.4,13.7,103.6,9.8z M61,95.8c0.2-2.3-0.6-7.6,10-11.6l0.2,21.4
		c-2.1-1.3-4.2-2.6-6.4-4C62,99.8,60.7,97.4,61,95.8z M84.1,101.6c-1.9,1.2-3.7,2.3-5.5,3.5l0.3-20.5c9.7,3.9,9,9,9.2,11.2
		C88.3,97.4,87,99.8,84.1,101.6z"/>
</svg>
