<?xml version="1.0" encoding="utf-8"?>
<!-- Generator: Adobe Illustrator 19.0.0, SVG Export Plug-In . SVG Version: 6.00 Build 0)  -->
<svg version="1.1" id="Layer_1" xmlns="http://www.w3.org/2000/svg" xmlns:xlink="http://www.w3.org/1999/xlink" x="0px" y="0px"
	 viewBox="68.2 175.8 150 150" style="enable-background:new 68.2 175.8 150 150;" xml:space="preserve">
<style type="text/css">
	.st0{fill:#EDEDED;}
</style>
<g>
	<g>
		<g>
			<path class="st0" d="M170.876,212.497c-7.187-10.092-14.526-20.642-20.183-31.651c-1.529-3.058-4.74-5.046-8.104-5.046
				c-3.364,0-6.575,1.835-8.104,5.046c-5.505,10.856-12.538,21.101-19.266,31.04c-13.609,19.725-26.3,38.226-26.3,58.868
				c0,31.957,22.477,55.046,53.517,55.046c31.346,0,55.046-23.7,55.046-55.046C197.481,250.265,184.484,231.916,170.876,212.497z
				 M142.435,319.684c-27.523,0-47.401-20.642-47.401-48.93c0-18.654,12.232-36.544,25.076-55.352
				c6.881-10.092,14.067-20.642,19.725-31.804c0.765-1.529,2.141-1.682,2.752-1.682s1.988,0.153,2.752,1.682
				c5.81,11.315,13.303,22.018,20.642,32.416c12.997,18.654,25.382,36.239,25.382,54.74
				C191.365,298.583,170.264,319.684,142.435,319.684z"/>
			<path class="st0" d="M128.062,220.754c-1.376-0.917-3.364-0.612-4.281,0.765c-5.199,7.951-11.315,17.125-15.749,26.453
				c-0.765,1.529,0,3.364,1.529,4.128c0.459,0.153,0.917,0.306,1.376,0.306c1.07,0,2.294-0.612,2.752-1.682
				c4.281-9.021,10.092-17.89,15.291-25.535C129.897,223.659,129.439,221.824,128.062,220.754z"/>
			<path class="st0" d="M108.185,255.617c-1.529-0.612-3.364,0.153-3.976,1.682c-0.612,1.682-1.223,3.364-1.529,5.046
				c-0.306,1.682,0.765,3.211,2.446,3.67c0.153,0,0.459,0,0.612,0c1.376,0,2.752-1.07,3.058-2.446
				c0.306-1.376,0.612-2.752,1.223-4.128C110.631,258.063,109.867,256.381,108.185,255.617z"/>
		</g>
	</g>
</g>
</svg>
